<svg xmlns="http://www.w3.org/2000/svg" xmlns:xlink="http://www.w3.org/1999/xlink" width="31" height="31" viewBox="0 0 31 31">
  <defs>
    <clipPath id="clip-path">
      <rect id="Rectangle_7275" data-name="Rectangle 7275" width="31" height="31" transform="translate(1418 46)" fill="#aca7a7" stroke="#707070" stroke-width="1" opacity="0.62"/>
    </clipPath>
  </defs>
  <g id="Mask_Group_236" data-name="Mask Group 236" transform="translate(-1418 -46)" clip-path="url(#clip-path)">
    <g id="login" transform="translate(1421 49)">
      <path id="Path_35254" data-name="Path 35254" d="M336.449,323.361A12.475,12.475,0,1,1,323.981,310.9,12.472,12.472,0,0,1,336.449,323.361Zm-3.191,7.086a11.677,11.677,0,1,0-18.547-.013,9.771,9.771,0,0,1,7.126-6.474,4.263,4.263,0,1,1,5-6.849,4.021,4.021,0,0,1,1.388,2.895,4.237,4.237,0,0,1-2.1,3.948A9.83,9.83,0,0,1,333.258,330.448Z" transform="translate(-311.5 -310.9)" fill="#aca7a7"/>
    </g>
  </g>
</svg>
