<svg xmlns="http://www.w3.org/2000/svg" width="120" height="120" viewBox="0 0 120 120">
    <defs>
        <style>
            .cls-1{fill:#fff}.cls-2{fill:#0218a7}
        </style>
    </defs>
    <g id="Group_73" data-name="Group 73" transform="translate(-165 -2423)">
        <circle id="Ellipse_1" cx="60" cy="60" r="60" class="cls-1" data-name="Ellipse 1" transform="translate(165 2423)"/>
        <path id="Path_10" d="M398.949 46.551a4.5 4.5 0 1 1-4.5-4.5 4.5 4.5 0 0 1 4.5 4.5zm0 0" class="cls-2" data-name="Path 10" transform="translate(-144.113 2410.863)"/>
        <path id="Path_11" d="M67.051 410.449a4.5 4.5 0 1 1-4.5-4.5 4.5 4.5 0 0 1 4.5 4.5zm0 0" class="cls-2" data-name="Path 11" transform="translate(141.113 2098.138)"/>
        <g id="Group_33" data-name="Group 33" transform="translate(-870 223)">
            <path id="Path_12" d="M128.538 103.778a20.726 20.726 0 0 0-2.858-6.9l2.694-2.695-6.22-6.215-2.692 2.692a20.725 20.725 0 0 0-6.9-2.858V84h-8.793v3.807a20.724 20.724 0 0 0-6.9 2.858l-2.692-2.692-6.22 6.215 2.694 2.695a20.725 20.725 0 0 0-2.858 6.9h-3.807v8.793H87.8a20.7 20.7 0 0 0 2.858 6.9l-2.7 2.7 6.215 6.22 2.707-2.707a20.7 20.7 0 0 0 6.9 2.858v3.833h8.793v-3.833a20.71 20.71 0 0 0 6.9-2.858l2.707 2.707 6.215-6.22-2.7-2.7a20.7 20.7 0 0 0 2.858-6.9h3.823v-8.793zM108.171 118.4a10.213 10.213 0 1 1 10.213-10.213 10.213 10.213 0 0 1-10.213 10.213zm0 0" class="cls-2" data-name="Path 12" transform="translate(988.829 2151.813)"/>
        </g>
        <path id="Path_13" d="M12.663 55.679a5.871 5.871 0 0 0-2.837.724A33.2 33.2 0 0 1 42.609 3.47a1.406 1.406 0 0 0 .557-2.757A36.267 36.267 0 0 0 36 0 36 36 0 0 0 7.747 58.309a5.909 5.909 0 1 0 4.916-2.63zm2.187 8.094a3.093 3.093 0 1 1 .906-2.187 3.072 3.072 0 0 1-.906 2.187zm0 0" data-name="Path 13" transform="translate(191.001 2447.001)"/>
        <path id="Path_14" d="M233.964 41.231a5.894 5.894 0 1 0-2.079 1.908 33.2 33.2 0 0 1-32.719 52.946 1.406 1.406 0 0 0-.552 2.758 36.292 36.292 0 0 0 7.1.7 36 36 0 0 0 28.252-58.312zm-7.1-1.087a3.095 3.095 0 1 1 2.187.906 3.073 3.073 0 0 1-2.19-.905zm0 0" data-name="Path 14" transform="translate(21.287 2419.457)"/>
        <path id="Path_15" d="M93.777 123.781a1.406 1.406 0 0 0 1.406 1.406h8.793a1.406 1.406 0 0 0 1.406-1.406v-2.726a22.021 22.021 0 0 0 5.278-2.187l1.925 1.925a1.406 1.406 0 0 0 1.989 0l6.215-6.219a1.407 1.407 0 0 0 0-1.988l-1.923-1.923a22.021 22.021 0 0 0 2.187-5.278h2.716a1.406 1.406 0 0 0 1.406-1.406v-8.795a1.406 1.406 0 0 0-1.406-1.406h-2.716a22.024 22.024 0 0 0-2.187-5.277l1.912-1.912a1.406 1.406 0 0 0 0-1.99l-6.22-6.215a1.406 1.406 0 0 0-1.989 0l-1.909 1.91a22.021 22.021 0 0 0-5.278-2.187v-2.7A1.406 1.406 0 0 0 103.976 74h-8.793a1.406 1.406 0 0 0-1.406 1.406v2.7a22 22 0 0 0-5.277 2.189l-1.91-1.91a1.407 1.407 0 0 0-1.989 0L78.382 84.6a1.406 1.406 0 0 0 0 1.989l1.912 1.911a22.017 22.017 0 0 0-2.187 5.277H75.4a1.406 1.406 0 0 0-1.406 1.406v8.793a1.406 1.406 0 0 0 1.406 1.407h2.716a22.021 22.021 0 0 0 2.187 5.278l-1.923 1.923a1.406 1.406 0 0 0 0 1.988l6.215 6.219a1.407 1.407 0 0 0 .994.413 1.406 1.406 0 0 0 .994-.412l1.924-1.925a22.04 22.04 0 0 0 5.278 2.187zm-4.726-7.871a1.407 1.407 0 0 0-1.758.187l-1.712 1.712-4.227-4.23 1.711-1.711a1.406 1.406 0 0 0 .187-1.757 19.248 19.248 0 0 1-2.664-6.429 1.407 1.407 0 0 0-1.375-1.111H76.8v-5.98h2.412a1.406 1.406 0 0 0 1.375-1.111 19.249 19.249 0 0 1 2.664-6.428 1.406 1.406 0 0 0-.187-1.757l-1.7-1.7 4.23-4.227 1.7 1.7a1.407 1.407 0 0 0 1.758.187 19.24 19.24 0 0 1 6.428-2.664 1.407 1.407 0 0 0 1.111-1.375v-2.4h5.98v2.4a1.406 1.406 0 0 0 1.111 1.375 19.256 19.256 0 0 1 6.428 2.664 1.405 1.405 0 0 0 1.757-.187l1.7-1.7 4.23 4.227-1.7 1.7a1.406 1.406 0 0 0-.187 1.758 19.261 19.261 0 0 1 2.664 6.428 1.406 1.406 0 0 0 1.375 1.111h2.416v5.98h-2.416a1.407 1.407 0 0 0-1.375 1.111 19.245 19.245 0 0 1-2.664 6.428 1.406 1.406 0 0 0 .187 1.758l1.711 1.711-4.227 4.23-1.712-1.712a1.406 1.406 0 0 0-1.758-.187 19.261 19.261 0 0 1-6.428 2.664 1.406 1.406 0 0 0-1.111 1.375v2.426h-5.98v-2.426a1.407 1.407 0 0 0-1.111-1.375 19.25 19.25 0 0 1-6.428-2.664zm0 0" class="cls-1" data-name="Path 15" transform="translate(127.42 2383.407)"/>
        <path id="Path_16" d="M196.61 184.991a11.62 11.62 0 1 0-11.62 11.62 11.633 11.633 0 0 0 11.62-11.62zm-20.427 0a8.807 8.807 0 1 1 8.807 8.807 8.817 8.817 0 0 1-8.806-8.807zm0 0" class="cls-1" data-name="Path 16" transform="translate(42.009 2298.01)"/>
        <path id="Path_17" d="M339.484 20.623a1.408 1.408 0 1 0-.994-.412 1.416 1.416 0 0 0 .994.412zm0 0" data-name="Path 17" transform="translate(-99.536 2431.697)"/>
        <path id="Path_18" d="M155.765 474.359a1.407 1.407 0 1 0 .994.412 1.417 1.417 0 0 0-.994-.412zm0 0" data-name="Path 18" transform="translate(58.348 2039.348)"/>
    </g>
</svg>
