<svg xmlns="http://www.w3.org/2000/svg" xmlns:xlink="http://www.w3.org/1999/xlink" width="44" height="44" viewBox="0 0 44 44"><defs><clipPath id="clip-path"><rect id="Rectangle_3" data-name="Rectangle 3" width="44" height="44" transform="translate(-486 1237)" fill="#fff" stroke="#707070" stroke-width="1"></rect></clipPath></defs><g id="Mask_Group_3" data-name="Mask Group 3" transform="translate(486 -1237)" clip-path="url(#clip-path)"><g id="conversation" transform="translate(-480.711 1217.956)"><path id="Path_24" data-name="Path 24" d="M34.958,67.3h9.53a1.961,1.961,0,0,0,1.958-1.958V63.192c.089-.073-.111.146,2.485-2.8a1.958,1.958,0,0,0-.96-3.382c-.121-.022.8-.016-13.013-.016A1.961,1.961,0,0,0,33,58.949v6.4A1.961,1.961,0,0,0,34.958,67.3Z" transform="translate(-30.846 -30.069)" fill="#01484e"></path><path id="Path_25" data-name="Path 25" d="M241.763,296.889c-15.676,0-14.939-.026-15.167.016a1.958,1.958,0,0,0-.96,3.382c2.591,2.944,2.4,2.731,2.485,2.8v2.154a1.96,1.96,0,0,0,1.958,1.958h11.684a1.96,1.96,0,0,0,1.958-1.958v-6.4A1.961,1.961,0,0,0,241.763,296.889Zm-6.9,5.971a.979.979,0,1,1,.27-1.358A.98.98,0,0,1,234.865,302.86Zm4.448-.27a.979.979,0,1,1-1.005-1.5A.98.98,0,0,1,239.313,302.59Z" transform="translate(-210.3 -251.248)" fill="#01484e"></path><path id="Path_26" data-name="Path 26" d="M285.738,162.291a6.583,6.583,0,0,1-9.923.019A7.054,7.054,0,0,0,273,167.886a.979.979,0,0,0,.979.979h13.643a.979.979,0,0,0,.979-.979A7.038,7.038,0,0,0,285.738,162.291Z" transform="translate(-255.18 -127.349)" fill="#01484e"></path><path id="Path_27" data-name="Path 27" d="M12.775,386.178a6.583,6.583,0,0,1-9.9-.019A7.04,7.04,0,0,0,0,391.763a.979.979,0,0,0,.979.979H14.622a.979.979,0,0,0,.979-.979A7.055,7.055,0,0,0,12.775,386.178Z" transform="translate(0 -334.698)" fill="#01484e"></path><ellipse id="Ellipse_1" data-name="Ellipse 1" cx="4.634" cy="4.624" rx="4.634" ry="4.624" transform="translate(3.199 41.583)" fill="#01484e"></ellipse><ellipse id="Ellipse_2" data-name="Ellipse 2" cx="5" cy="4.5" rx="5" ry="4.5" transform="translate(20.711 25.044)" fill="#01484e"></ellipse></g></g></svg>