<svg xmlns="http://www.w3.org/2000/svg" xmlns:xlink="http://www.w3.org/1999/xlink" width="44" height="44" viewBox="0 0 44 44"><defs><clipPath id="clip-path"><rect id="Rectangle_4" data-name="Rectangle 4" width="44" height="44" transform="translate(-427 1236)" fill="#fff" stroke="#707070" stroke-width="1"></rect></clipPath></defs><g id="Mask_Group_4" data-name="Mask Group 4" transform="translate(427 -1236)" clip-path="url(#clip-path)"><g id="understanding" transform="translate(-421.384 1242)"><path id="Path_70" data-name="Path 70" d="M169.4,46.819a5.454,5.454,0,1,0-9.506,3.645,5.139,5.139,0,0,1,1.325,3.444v0h5.454a4.952,4.952,0,0,1,1.269-3.384,5.422,5.422,0,0,0,1.458-3.706Z" transform="translate(-147.501 -38.539)" fill="#01484e"></path><path id="Path_71" data-name="Path 71" d="M36.006,235.174H28.644v-8.181l2.727,3.988a2.088,2.088,0,0,0,.56.634l4.453,3.147a1.362,1.362,0,0,0,1.436-2.316l-4.6-3.272L31.6,225.9a4.851,4.851,0,0,0-4.172-3.272h-2.6a2.182,2.182,0,0,1-4.363,0h-2.8c-1.569,0-2.945,1.758-3.358,3.272l-2.573,3.435L7.69,231.9A1.412,1.412,0,0,0,9,234.4l.012-.007,5.151-3.2a2.448,2.448,0,0,0,.523-.536l2.507-3.672v8.181H9.282a2.454,2.454,0,1,0,0,4.909H36.006a2.454,2.454,0,1,0,0-4.909Z" transform="translate(-6.177 -207.452)" fill="#01484e"></path><path id="Path_72" data-name="Path 72" d="M231.115,59.8a4.609,4.609,0,0,0-5.122-5.2c-.027,0-.052.009-.079.012A5.927,5.927,0,0,1,231.115,59.8Z" transform="translate(-210.327 -50.845)" fill="#01484e"></path><path id="Path_73" data-name="Path 73" d="M212.572,111.283l-.873-.654-1.2,1.6-1.2-1.6-.873.654,1.527,2.036v5.491h1.091v-5.491Z" transform="translate(-194.032 -103.087)" fill="#01484e"></path><g id="Group_1" data-name="Group 1" transform="translate(0.199)"><path id="Path_74" data-name="Path 74" d="M430.832.772,431.6,0l.771.771-.771.771Z" transform="translate(-401.474 -0.001)" fill="#01484e"></path><path id="Path_75" data-name="Path 75" d="M408.2,23.4l.771-.771.771.771-.771.771Z" transform="translate(-380.385 -21.087)" fill="#01484e"></path><path id="Path_76" data-name="Path 76" d="M430.831,23.4l.771-.771.771.771-.771.771Z" transform="translate(-401.473 -21.089)" fill="#01484e"></path><path id="Path_77" data-name="Path 77" d="M408.2.771,408.973,0l.771.771-.771.771Z" transform="translate(-380.387)" fill="#01484e"></path><path id="Path_78" data-name="Path 78" d="M22.807,209.741l.771-.771.771.771-.771.771Z" transform="translate(-21.266 -194.724)" fill="#01484e"></path><path id="Path_79" data-name="Path 79" d="M.2,232.33l.771-.771.771.771L.97,233.1Z" transform="translate(-0.199 -215.773)" fill="#01484e"></path><path id="Path_80" data-name="Path 80" d="M22.806,232.331l.771-.771.771.771-.771.771Z" transform="translate(-21.265 -215.774)" fill="#01484e"></path><path id="Path_81" data-name="Path 81" d="M.2,209.747l.771-.771.771.771-.771.771Z" transform="translate(-0.201 -194.729)" fill="#01484e"></path><path id="Path_82" data-name="Path 82" d="M46.83.775,47.6,0l.771.771-.771.771Z" transform="translate(-43.651 -0.004)" fill="#01484e"></path><path id="Path_83" data-name="Path 83" d="M24.206,23.4l.771-.771.771.771-.771.771Z" transform="translate(-22.569 -21.089)" fill="#01484e"></path><path id="Path_84" data-name="Path 84" d="M46.828,23.4l.771-.771.771.771-.771.771Z" transform="translate(-43.649 -21.083)" fill="#01484e"></path><path id="Path_85" data-name="Path 85" d="M24.2.773,24.971,0l.771.771-.771.771Z" transform="translate(-22.564 -0.002)" fill="#01484e"></path><path id="Path_86" data-name="Path 86" d="M455.8,209.774l.771-.771.771.771-.771.771Z" transform="translate(-424.739 -194.754)" fill="#01484e"></path><path id="Path_87" data-name="Path 87" d="M433.172,232.333l.771-.771.771.771-.771.771Z" transform="translate(-403.655 -215.776)" fill="#01484e"></path><path id="Path_88" data-name="Path 88" d="M455.8,232.332l.771-.771.771.771-.771.771Z" transform="translate(-424.745 -215.775)" fill="#01484e"></path><path id="Path_89" data-name="Path 89" d="M433.174,209.775l.771-.771.771.771-.771.771Z" transform="translate(-403.656 -194.755)" fill="#01484e"></path></g><g id="Group_2" data-name="Group 2" transform="translate(13.195 19.541)"><path id="Path_90" data-name="Path 90" d="M190.827,414.629h4.909a2.182,2.182,0,1,1,0,4.363h-4.909v-4.363Z" transform="translate(-190.827 -405.903)" fill="#01484e"></path><path id="Path_91" data-name="Path 91" d="M286.827,286.629h1.091v1.091h-1.091Z" transform="translate(-280.282 -286.629)" fill="#01484e"></path><path id="Path_92" data-name="Path 92" d="M286.827,318.629h1.091v4.363h-1.091Z" transform="translate(-280.282 -316.447)" fill="#01484e"></path></g><g id="Group_3" data-name="Group 3" transform="translate(7.196 0.611)"><path id="Path_93" data-name="Path 93" d="M342.827,94.629h2.182V95.72h-2.182Z" transform="translate(-326.465 -88.789)" fill="#01484e"></path><path id="Path_94" data-name="Path 94" d="M314.547,10.51l1.543-1.543.771.771-1.543,1.543Z" transform="translate(-300.113 -8.967)" fill="#01484e"></path><path id="Path_95" data-name="Path 95" d="M102.827,94.629h2.182V95.72h-2.182Z" transform="translate(-102.827 -88.789)" fill="#01484e"></path><path id="Path_96" data-name="Path 96" d="M129.17,9.771,129.941,9l1.636,1.636-.771.771Z" transform="translate(-127.374 -8.998)" fill="#01484e"></path></g><path id="Path_97" data-name="Path 97" d="M209.009,224.811a2.182,2.182,0,0,1-2.182-2.182h4.363A2.182,2.182,0,0,1,209.009,224.811Z" transform="translate(-192.541 -207.452)" fill="#01484e"></path></g></g></svg>