<svg xmlns:dc="http://purl.org/dc/elements/1.1/" xmlns:cc="http://creativecommons.org/ns#" xmlns:rdf="http://www.w3.org/1999/02/22-rdf-syntax-ns#" xmlns:svg="http://www.w3.org/2000/svg" xmlns="http://www.w3.org/2000/svg" id="svg31" viewBox="0 0 44 44" height="44" width="44"><metadata></metadata><defs id="defs4"><clipPath id="clip-path"><rect stroke-width="1" stroke="#707070" fill="#01484e" transform="translate(-551 1236)" height="44" width="44" data-name="Rectangle 2" id="Rectangle_2"></rect></clipPath></defs><g clip-path="url(#clip-path)" transform="translate(551 -1236)" data-name="Mask Group 2" id="Mask_Group_2"><g transform="translate(-548.514 1238.354)" id="achievement"><path fill="#01484e" transform="translate(-18.234 -5.221)" d="M57.066,19.667l-5.3-3.535v2.932H49.234a1.8,1.8,0,0,0-.7-.9L46.86,18.5a8.106,8.106,0,0,1,0,2.332l1.672.333a1.8,1.8,0,0,0,.7-.9h2.529V23.2Z" data-name="Path 1" id="Path_1"></path><path fill="#01484e" transform="translate(-17.49 -9.104)" d="M47.738,27.93a1.788,1.788,0,0,0-.186-1.7L45.88,25.9a8.988,8.988,0,0,1-.893,2.155L46.406,29A1.79,1.79,0,0,0,47.738,27.93Z" data-name="Path 2" id="Path_2"></path><path fill="#01484e" transform="translate(-5.257 -9.104)" d="M16.216,25.9l-1.673.333A1.778,1.778,0,0,0,15.69,29l1.419-.948A8.975,8.975,0,0,1,16.216,25.9Z" data-name="Path 3" id="Path_3"></path><path fill="#01484e" transform="translate(-15.958 -11.187)" d="M43.726,33.726a1.791,1.791,0,0,0,.479-1.642l-1.421-.949a9.128,9.128,0,0,1-1.649,1.649l.949,1.421A1.8,1.8,0,0,0,43.726,33.726Z" data-name="Path 4" id="Path_4"></path><path fill="#01484e" transform="translate(-15.958 -1.871)" d="M42.783,10.814,44.2,9.865a1.778,1.778,0,0,0-2.12-2.12l-.949,1.421A9.029,9.029,0,0,1,42.783,10.814Z" data-name="Path 5" id="Path_5"></path><path fill="#01484e" transform="translate(-13.875 -0.486)" d="M39,5.69a1.778,1.778,0,0,0-2.77-1.148L35.9,6.215a8.988,8.988,0,0,1,2.155.893Z" data-name="Path 6" id="Path_6"></path><path fill="#01484e" transform="translate(-17.489 -3.957)" d="M45.879,16.055l1.673-.333a1.778,1.778,0,0,0-1.148-2.77l-1.419.948A8.975,8.975,0,0,1,45.879,16.055Z" data-name="Path 7" id="Path_7"></path><path fill="#01484e" transform="translate(-7.301 -2.386)" d="M34.807,16.831a7.827,7.827,0,0,0-15.444-1.807h1.865a6.024,6.024,0,1,1,0,3.614H19.363a7.827,7.827,0,0,0,15.444-1.807Z" data-name="Path 8" id="Path_8"></path><path fill="#01484e" transform="translate(-6.641 -11.187)" d="M19.863,34.2l.949-1.421a9.128,9.128,0,0,1-1.649-1.649l-1.421.949a1.778,1.778,0,0,0,2.12,2.12Z" data-name="Path 9" id="Path_9"></path><path fill="#01484e" transform="translate(-8.728 -12.718)" d="M24.022,37.738a1.79,1.79,0,0,0,1.7-.186l.333-1.673a8.988,8.988,0,0,1-2.155-.893l-.948,1.419A1.79,1.79,0,0,0,24.022,37.738Z" data-name="Path 10" id="Path_10"></path><path fill="#01484e" transform="translate(-13.875 -12.718)" d="M36.23,37.552A1.778,1.778,0,0,0,39,36.4l-.948-1.419a8.954,8.954,0,0,1-2.155.893Z" data-name="Path 11" id="Path_11"></path><path fill="#01484e" transform="translate(-16.72 -13.537)" d="M43.052,37.794l3.287,9.7,2.438.271L45.206,37.047A2.963,2.963,0,0,1,43.052,37.794Z" data-name="Path 12" id="Path_12"></path><path fill="#01484e" transform="translate(-6.635 -14.837)" d="M21.468,40.969a2.958,2.958,0,0,1-.958-.654l-2.823,8.328L18.7,48.53l.55.55,2.573-7.991A3.054,3.054,0,0,1,21.468,40.969Z" data-name="Path 13" id="Path_13"></path><path fill="#01484e" transform="translate(-8.298 -15.19)" d="M25.671,41.2a3.012,3.012,0,0,1-.943.311L21.87,50.392l2.2,2.2L27.2,42.179A2.985,2.985,0,0,1,25.671,41.2Z" data-name="Path 14" id="Path_14"></path><path fill="#01484e" transform="translate(-11.337 -13.463)" d="M32.51,38.532l-.333-1.672a9.075,9.075,0,0,1-1.166.084,8.968,8.968,0,0,1-1.166-.084l-.333,1.672a1.777,1.777,0,0,0,3,0Z" data-name="Path 15" id="Path_15"></path><path fill="#01484e" transform="translate(-12.839 -15.19)" d="M34.814,41.2a2.988,2.988,0,0,1-1.523.975l3.124,10.414,2.2-2.2-2.858-8.876A3.021,3.021,0,0,1,34.814,41.2Z" data-name="Path 16" id="Path_16"></path><path fill="#01484e" transform="translate(-15.288 -14.836)" d="M39.8,40.969a2.94,2.94,0,0,1-.354.119l2.573,7.991.55-.55,1.013.113-2.823-8.328a2.944,2.944,0,0,1-.959.655Z" data-name="Path 17" id="Path_17"></path><path fill="#01484e" transform="translate(-5.258 -3.957)" d="M14.573,15.728l1.644.327a8.988,8.988,0,0,1,.893-2.155l-1.419-.948a1.771,1.771,0,0,0-1.172,2.722Z" data-name="Path 18" id="Path_18"></path><path fill="#01484e" transform="translate(-8.728 -0.486)" d="M26.055,6.216l-.333-1.673a1.778,1.778,0,0,0-2.77,1.148L23.9,7.109A8.99,8.99,0,0,1,26.055,6.216Z" data-name="Path 19" id="Path_19"></path><path fill="#01484e" transform="translate(-4.152 -13.537)" d="M15.014,37.047,11.443,47.762l2.438-.271,3.287-9.7A2.965,2.965,0,0,1,15.014,37.047Z" data-name="Path 20" id="Path_20"></path><path fill="#01484e" transform="translate(-6.641 -1.871)" d="M19.165,10.814a9.128,9.128,0,0,1,1.649-1.649l-.95-1.421a1.778,1.778,0,0,0-2.12,2.12Z" data-name="Path 21" id="Path_21"></path><path fill="#01484e" transform="translate(-11.337 0)" d="M31.011,5.41a8.968,8.968,0,0,1,1.166.084l.333-1.672a1.777,1.777,0,0,0-3,0l.333,1.672A9.076,9.076,0,0,1,31.011,5.41Z" data-name="Path 22" id="Path_22"></path><path fill="#01484e" transform="translate(0 -4.49)" d="M17.35,19.538a2.41,2.41,0,1,0,0-1.2H9.683l-4.04-4.04-.852.852,3.188,3.188H6.671L3.835,15.5l-.852.852,1.984,1.984H3.659L2.028,16.7l-.852.852.779.779H1v1.2h.955l-.779.779.852.852,1.631-1.631H4.967L2.984,21.522l.852.852,2.835-2.835H7.979L4.791,22.726l.852.852,4.04-4.04Z" data-name="Path 23" id="Path_23"></path></g></g></svg>