<svg xmlns="http://www.w3.org/2000/svg" xmlns:xlink="http://www.w3.org/1999/xlink" width="44" height="44" viewBox="0 0 44 44"><defs><clipPath id="clip-path"><rect id="Rectangle_2" data-name="Rectangle 2" width="44" height="44" transform="translate(-551 1236)" fill="#01484e" stroke="#707070" stroke-width="1"></rect></clipPath></defs><g id="Mask_Group_2" data-name="Mask Group 2" transform="translate(551 -1236)" clip-path="url(#clip-path)"><g id="achievement" transform="translate(-548.514 1238.354)"><path id="Path_1" data-name="Path 1" d="M57.066,19.667l-5.3-3.535v2.932H49.234a1.8,1.8,0,0,0-.7-.9L46.86,18.5a8.106,8.106,0,0,1,0,2.332l1.672.333a1.8,1.8,0,0,0,.7-.9h2.529V23.2Z" transform="translate(-18.234 -5.221)" fill="#01484e"></path><path id="Path_2" data-name="Path 2" d="M47.738,27.93a1.788,1.788,0,0,0-.186-1.7L45.88,25.9a8.988,8.988,0,0,1-.893,2.155L46.406,29A1.79,1.79,0,0,0,47.738,27.93Z" transform="translate(-17.49 -9.104)" fill="#01484e"></path><path id="Path_3" data-name="Path 3" d="M16.216,25.9l-1.673.333A1.778,1.778,0,0,0,15.69,29l1.419-.948A8.975,8.975,0,0,1,16.216,25.9Z" transform="translate(-5.257 -9.104)" fill="#01484e"></path><path id="Path_4" data-name="Path 4" d="M43.726,33.726a1.791,1.791,0,0,0,.479-1.642l-1.421-.949a9.128,9.128,0,0,1-1.649,1.649l.949,1.421A1.8,1.8,0,0,0,43.726,33.726Z" transform="translate(-15.958 -11.187)" fill="#01484e"></path><path id="Path_5" data-name="Path 5" d="M42.783,10.814,44.2,9.865a1.778,1.778,0,0,0-2.12-2.12l-.949,1.421A9.029,9.029,0,0,1,42.783,10.814Z" transform="translate(-15.958 -1.871)" fill="#01484e"></path><path id="Path_6" data-name="Path 6" d="M39,5.69a1.778,1.778,0,0,0-2.77-1.148L35.9,6.215a8.988,8.988,0,0,1,2.155.893Z" transform="translate(-13.875 -0.486)" fill="#01484e"></path><path id="Path_7" data-name="Path 7" d="M45.879,16.055l1.673-.333a1.778,1.778,0,0,0-1.148-2.77l-1.419.948A8.975,8.975,0,0,1,45.879,16.055Z" transform="translate(-17.489 -3.957)" fill="#01484e"></path><path id="Path_8" data-name="Path 8" d="M34.807,16.831a7.827,7.827,0,0,0-15.444-1.807h1.865a6.024,6.024,0,1,1,0,3.614H19.363a7.827,7.827,0,0,0,15.444-1.807Z" transform="translate(-7.301 -2.386)" fill="#01484e"></path><path id="Path_9" data-name="Path 9" d="M19.863,34.2l.949-1.421a9.128,9.128,0,0,1-1.649-1.649l-1.421.949a1.778,1.778,0,0,0,2.12,2.12Z" transform="translate(-6.641 -11.187)" fill="#01484e"></path><path id="Path_10" data-name="Path 10" d="M24.022,37.738a1.79,1.79,0,0,0,1.7-.186l.333-1.673a8.988,8.988,0,0,1-2.155-.893l-.948,1.419A1.79,1.79,0,0,0,24.022,37.738Z" transform="translate(-8.728 -12.718)" fill="#01484e"></path><path id="Path_11" data-name="Path 11" d="M36.23,37.552A1.778,1.778,0,0,0,39,36.4l-.948-1.419a8.954,8.954,0,0,1-2.155.893Z" transform="translate(-13.875 -12.718)" fill="#01484e"></path><path id="Path_12" data-name="Path 12" d="M43.052,37.794l3.287,9.7,2.438.271L45.206,37.047A2.963,2.963,0,0,1,43.052,37.794Z" transform="translate(-16.72 -13.537)" fill="#01484e"></path><path id="Path_13" data-name="Path 13" d="M21.468,40.969a2.958,2.958,0,0,1-.958-.654l-2.823,8.328L18.7,48.53l.55.55,2.573-7.991A3.054,3.054,0,0,1,21.468,40.969Z" transform="translate(-6.635 -14.837)" fill="#01484e"></path><path id="Path_14" data-name="Path 14" d="M25.671,41.2a3.012,3.012,0,0,1-.943.311L21.87,50.392l2.2,2.2L27.2,42.179A2.985,2.985,0,0,1,25.671,41.2Z" transform="translate(-8.298 -15.19)" fill="#01484e"></path><path id="Path_15" data-name="Path 15" d="M32.51,38.532l-.333-1.672a9.075,9.075,0,0,1-1.166.084,8.968,8.968,0,0,1-1.166-.084l-.333,1.672a1.777,1.777,0,0,0,3,0Z" transform="translate(-11.337 -13.463)" fill="#01484e"></path><path id="Path_16" data-name="Path 16" d="M34.814,41.2a2.988,2.988,0,0,1-1.523.975l3.124,10.414,2.2-2.2-2.858-8.876A3.021,3.021,0,0,1,34.814,41.2Z" transform="translate(-12.839 -15.19)" fill="#01484e"></path><path id="Path_17" data-name="Path 17" d="M39.8,40.969a2.94,2.94,0,0,1-.354.119l2.573,7.991.55-.55,1.013.113-2.823-8.328a2.944,2.944,0,0,1-.959.655Z" transform="translate(-15.288 -14.836)" fill="#01484e"></path><path id="Path_18" data-name="Path 18" d="M14.573,15.728l1.644.327a8.988,8.988,0,0,1,.893-2.155l-1.419-.948a1.771,1.771,0,0,0-1.172,2.722Z" transform="translate(-5.258 -3.957)" fill="#01484e"></path><path id="Path_19" data-name="Path 19" d="M26.055,6.216l-.333-1.673a1.778,1.778,0,0,0-2.77,1.148L23.9,7.109A8.99,8.99,0,0,1,26.055,6.216Z" transform="translate(-8.728 -0.486)" fill="#01484e"></path><path id="Path_20" data-name="Path 20" d="M15.014,37.047,11.443,47.762l2.438-.271,3.287-9.7A2.965,2.965,0,0,1,15.014,37.047Z" transform="translate(-4.152 -13.537)" fill="#01484e"></path><path id="Path_21" data-name="Path 21" d="M19.165,10.814a9.128,9.128,0,0,1,1.649-1.649l-.95-1.421a1.778,1.778,0,0,0-2.12,2.12Z" transform="translate(-6.641 -1.871)" fill="#01484e"></path><path id="Path_22" data-name="Path 22" d="M31.011,5.41a8.968,8.968,0,0,1,1.166.084l.333-1.672a1.777,1.777,0,0,0-3,0l.333,1.672A9.076,9.076,0,0,1,31.011,5.41Z" transform="translate(-11.337 0)" fill="#01484e"></path><path id="Path_23" data-name="Path 23" d="M17.35,19.538a2.41,2.41,0,1,0,0-1.2H9.683l-4.04-4.04-.852.852,3.188,3.188H6.671L3.835,15.5l-.852.852,1.984,1.984H3.659L2.028,16.7l-.852.852.779.779H1v1.2h.955l-.779.779.852.852,1.631-1.631H4.967L2.984,21.522l.852.852,2.835-2.835H7.979L4.791,22.726l.852.852,4.04-4.04Z" transform="translate(0 -4.49)" fill="#01484e"></path></g></g></svg>