<svg xmlns="http://www.w3.org/2000/svg" xmlns:xlink="http://www.w3.org/1999/xlink" width="44" height="44" viewBox="0 0 44 44"><defs><clipPath id="clip-path"><rect id="Rectangle_7" data-name="Rectangle 7" width="44" height="44" transform="translate(-226 1239)" fill="#fff" stroke="#707070" stroke-width="1"></rect></clipPath></defs><g id="Mask_Group_7" data-name="Mask Group 7" transform="translate(226 -1239)" clip-path="url(#clip-path)"><g id="graphic" transform="translate(-221.152 1233.861)"><path id="Path_98" data-name="Path 98" d="M.906,351.043A1.07,1.07,0,0,0,0,352.1v2.66a1.07,1.07,0,0,0,1.07,1.07H17.083v2.194l-1.968,1.968a1.07,1.07,0,1,0,1.514,1.514l1.529-1.529,1.518,1.527a1.07,1.07,0,1,0,1.518-1.509l-1.97-1.981v-2.183H35.236a1.07,1.07,0,0,0,1.07-1.07V352.1a1.07,1.07,0,0,0-.906-1.056l.005-.014s-34.5.009-34.5.014Z" transform="translate(0 -317.957)" fill="#01484e"></path><path id="Path_99" data-name="Path 99" d="M46.457,30.932V12.17a1.07,1.07,0,0,0-1.07-1.07H30.213V9.875a1.07,1.07,0,0,0-2.141,0V11.1H12.9a1.07,1.07,0,0,0-1.07,1.07V30.932ZM29.143,28.28a7.25,7.25,0,1,1,7.25-7.25A7.259,7.259,0,0,1,29.143,28.28Z" transform="translate(-10.99 0)" fill="#01484e"></path><path id="Path_100" data-name="Path 100" d="M191.61,110.744v5a1.07,1.07,0,0,1-1.07,1.07h-5a5.11,5.11,0,1,0,6.066-6.066Z" transform="translate(-172.387 -94.711)" fill="#01484e"></path><path id="Path_101" data-name="Path 101" d="M189.47,114.67v-3.926a5.125,5.125,0,0,0-3.926,3.926Z" transform="translate(-172.387 -94.711)" fill="#01484e"></path></g></g></svg>