<svg xmlns="http://www.w3.org/2000/svg" xmlns:xlink="http://www.w3.org/1999/xlink" width="44" height="44" viewBox="0 0 44 44"><defs><clipPath id="clip-path"><rect id="Rectangle_1" data-name="Rectangle 1" width="44" height="44" transform="translate(-616 1236)" fill="#fff" stroke="#707070" stroke-width="1"></rect></clipPath></defs><g id="Mask_Group_1" data-name="Mask Group 1" transform="translate(616 -1236)" clip-path="url(#clip-path)"><g id="XMLID_2534_" transform="translate(-609.498 1233.161)"><path id="XMLID_2538_" d="M30.363,300.881l-3.586-.521-1.6-3.249h0l-1.6,3.249-3.389.492,1.25-1.218-4.319-.627-1.931-3.913-1.931,3.913-4.318.627,1.25,1.218-3.388-.492-1.6-3.249h0l-1.6,3.248L0,300.881l2.595,2.529-.612,3.571L5.189,305.3h0L8.4,306.981l-.613-3.571,2.511-2.447,1.762,1.717-.738,4.3,3.863-2.031,3.863,2.031-.738-4.3,1.762-1.718,2.511,2.447-.613,3.571,3.207-1.686h0l3.207,1.686-.612-3.571,2.595-2.529Z" transform="translate(0 -267.853)" fill="#01484e"></path><path id="XMLID_2638_" d="M17.339,105.562v-.908A7.825,7.825,0,0,1,18.5,100.54a5.033,5.033,0,0,0-.983-.526,2.725,2.725,0,1,0-3.693,0,5,5,0,0,0-3.149,4.641v.908h6.662Z" transform="translate(-10.03 -80.146)" fill="#01484e"></path><path id="XMLID_2639_" d="M362.635,104.653v.908H369.3v-.908a5,5,0,0,0-3.149-4.641,2.725,2.725,0,1,0-3.693,0,5.039,5.039,0,0,0-.983.526A7.825,7.825,0,0,1,362.635,104.653Z" transform="translate(-339.581 -80.146)" fill="#01484e"></path><path id="XMLID_2731_" d="M162.788,24.507h0a6.058,6.058,0,0,0-3.915-5.666,4.693,4.693,0,1,0-4.281,0,6.058,6.058,0,0,0-3.915,5.666v.908h12.111Z" transform="translate(-141.552)" fill="#01484e"></path></g></g></svg>