<svg xmlns="http://www.w3.org/2000/svg" xmlns:xlink="http://www.w3.org/1999/xlink" width="44" height="44" viewBox="0 0 44 44"><defs><clipPath id="clip-path"><rect id="Rectangle_8" data-name="Rectangle 8" width="44" height="44" transform="translate(-291 1238)" fill="#fff" stroke="#707070" stroke-width="1"></rect></clipPath></defs><g id="Mask_Group_6" data-name="Mask Group 6" transform="translate(291 -1238)" clip-path="url(#clip-path)"><g id="training" transform="translate(-288.823 1240.263)"><path id="Path_44" data-name="Path 44" d="M43.606,27.265a2.3,2.3,0,0,1-.938.57l.526,1.157,1.487-1.19Z" transform="translate(-16.743 -10.26)" fill="#01484e"></path><path id="Path_45" data-name="Path 45" d="M48.1,29.592l-.388-.311-.388.311.227.682h.322Z" transform="translate(-18.714 -11.113)" fill="#01484e"></path><path id="Path_46" data-name="Path 46" d="M48.772,14.131V11.823a.578.578,0,0,0-.577-.577H45.886a1.733,1.733,0,0,1-1.583-1.03A1.73,1.73,0,0,0,43,11.894v2.238a2.886,2.886,0,1,0,5.772,0Z" transform="translate(-16.884 -3.051)" fill="#01484e"></path><path id="Path_47" data-name="Path 47" d="M50.206,31.151l-.179.537.242,1.454.647-1.423Z" transform="translate(-19.855 -11.904)" fill="#01484e"></path><path id="Path_48" data-name="Path 48" d="M48.418,24.714c-.016-.056-.035-.111-.047-.169l-.189-.942a3.968,3.968,0,0,1-2.656,0l-.189.942c-.012.058-.031.113-.047.169l1.564.782Z" transform="translate(-17.853 -8.712)" fill="#01484e"></path><path id="Path_49" data-name="Path 49" d="M48.127,35.309,47.742,33h-.177l-.385,2.309Z" transform="translate(-18.651 -12.685)" fill="#01484e"></path><path id="Path_50" data-name="Path 50" d="M45.321,31.688l-.179-.537-.71.568.647,1.423Z" transform="translate(-17.489 -11.904)" fill="#01484e"></path><path id="Path_51" data-name="Path 51" d="M40.154,8.194h.083a2.875,2.875,0,0,1,2.1-2.152L42.527,6a1.734,1.734,0,0,1,1.667-1.265h.577V5.886h-.577a.577.577,0,0,0,0,1.154H46.5a1.729,1.729,0,0,1,1.625,1.154h.106a2.3,2.3,0,0,1,.873.174l.082-.245A3.892,3.892,0,0,0,45.5,3h-1.53a3.3,3.3,0,0,0-2.755,1.475l-.124.185-.845.211A1.638,1.638,0,0,0,39,6.463a7.55,7.55,0,0,0,.334,1.889A2.294,2.294,0,0,1,40.154,8.194Z" transform="translate(-15.192)" fill="#01484e"></path><path id="Path_52" data-name="Path 52" d="M54.966,14v1.731a4.054,4.054,0,0,1-.046.577h.046a1.154,1.154,0,0,0,0-2.309Z" transform="translate(-21.924 -4.651)" fill="#01484e"></path><path id="Path_53" data-name="Path 53" d="M31.427,33.157A4.589,4.589,0,0,1,31.97,31H29.281l.866,3.463h1.281Z" transform="translate(-11.083 -11.84)" fill="#01484e"></path><path id="Path_54" data-name="Path 54" d="M38.271,28.686l-.488.1A3.472,3.472,0,0,0,35,32.179v1.306h5.452Z" transform="translate(-13.501 -10.861)" fill="#01484e"></path><path id="Path_55" data-name="Path 55" d="M24.872,18.482l1.392-.278a1.152,1.152,0,0,0,.906-.906l.256-1.278A4.065,4.065,0,0,1,26.173,14.5h-.4a2.311,2.311,0,0,1-2.309-2.309,2.284,2.284,0,0,1,.5-1.42,9.657,9.657,0,0,1-.5-2.62A2.778,2.778,0,0,1,23.727,7H5V19.7H22.571a4.593,4.593,0,0,1,2.3-1.215Zm-2.557-3.4H17.7v3.463H9.617V15.08H6.154V8.154H13.08v3.463h2.309V9.309h6.926Z" transform="translate(-0.816 -1.691)" fill="#01484e"></path><path id="Path_56" data-name="Path 56" d="M54.222,28.784l-.488-.1-2.181,4.8h5.452V32.179A3.472,3.472,0,0,0,54.222,28.784Z" transform="translate(-20.5 -10.861)" fill="#01484e"></path><path id="Path_57" data-name="Path 57" d="M17.309,19.309H15v2.309h5.772V17H17.309Z" transform="translate(-5.044 -5.92)" fill="#01484e"></path><path id="Path_58" data-name="Path 58" d="M14.147,31l-.866,3.463h1.7L15.842,31Z" transform="translate(-4.317 -11.84)" fill="#01484e"></path><path id="Path_59" data-name="Path 59" d="M51.858,27.836a2.3,2.3,0,0,1-.938-.57l-1.074.537,1.487,1.19Z" transform="translate(-19.778 -10.261)" fill="#01484e"></path><path id="Path_60" data-name="Path 60" d="M9,11h4.617v4.617H9Z" transform="translate(-2.507 -3.383)" fill="#01484e"></path><path id="Path_61" data-name="Path 61" d="M26.154,16.463h3.463V13H25v1.154h1.154Z" transform="translate(-9.273 -4.228)" fill="#01484e"></path><path id="Path_62" data-name="Path 62" d="M40.154,16.309H40.2a4.055,4.055,0,0,1-.046-.577V14a1.154,1.154,0,0,0,0,2.309Z" transform="translate(-15.192 -4.651)" fill="#01484e"></path><path id="Path_63" data-name="Path 63" d="M50.023,54.711a1.137,1.137,0,0,0-.023.167,1.154,1.154,0,0,0,2.309,0,1.137,1.137,0,0,0-.023-.167,3.923,3.923,0,0,1-2.264,0Z" transform="translate(-19.844 -21.866)" fill="#01484e"></path><path id="Path_64" data-name="Path 64" d="M50.52,55.283a2.3,2.3,0,0,1-4.584,0,4.022,4.022,0,0,0-2.857,3.3h10.3A4.028,4.028,0,0,0,50.52,55.283Z" transform="translate(-16.917 -22.107)" fill="#01484e"></path><path id="Path_65" data-name="Path 65" d="M52.772,45.886v-.577A2.311,2.311,0,0,0,50.463,43H49.309A2.311,2.311,0,0,0,47,45.309v.577a2.886,2.886,0,0,0,5.772,0Z" transform="translate(-18.575 -16.914)" fill="#01484e"></path><path id="Path_66" data-name="Path 66" d="M29.886,48.772a2.889,2.889,0,0,0,2.886-2.886v-.577A2.311,2.311,0,0,0,30.463,43H29.309A2.311,2.311,0,0,0,27,45.309v.577A2.889,2.889,0,0,0,29.886,48.772Z" transform="translate(-10.118 -16.914)" fill="#01484e"></path><path id="Path_67" data-name="Path 67" d="M9.379,55H7.07a4.046,4.046,0,0,0-4,3.463H13.377a4.045,4.045,0,0,0-4-3.463Z" transform="translate(0 -21.988)" fill="#01484e"></path><path id="Path_68" data-name="Path 68" d="M11.04,43H7v2.886a2.886,2.886,0,1,0,5.772,0V44.731A1.734,1.734,0,0,0,11.04,43Z" transform="translate(-1.661 -16.914)" fill="#01484e"></path><path id="Path_69" data-name="Path 69" d="M29.383,55H27.074a4.043,4.043,0,0,0-3.994,3.463h10.3A4.043,4.043,0,0,0,29.383,55Z" transform="translate(-8.461 -21.988)" fill="#01484e"></path></g></g></svg>