<svg xmlns="http://www.w3.org/2000/svg" width="1619.4" height="1619.4" viewBox="0 0 1619.4 1619.4">
  <g id="Group_4" data-name="Group 4" transform="translate(-5559.632 -1879.985)">
    <g id="Group_3" data-name="Group 3" transform="translate(-153.798 -656.798)">
      <path id="path14" d="M0,952.735H1619.4v-1619.4H0Z" transform="translate(5713.431 3203.449)" fill="#fff"/>
      <path id="path16" d="M542.986,434.455a173.583,173.583,0,0,1-49.094-7.113c-32.216-11.5-50.629-36.821-80.542-50.625-23.018-11.047-48.242-12.887-73.618-12.887-6.338,0-12.686.113-19.012.23s-12.631.226-18.879.226c-25,0-49.12-1.839-70.292-12.884-94.352-48.329-20.709-156.486-23.008-227.83-2.3-36.815-20.715-62.13-46.027-87.448C114.188-7.6,106.272-60.52,122.38-127.256c25.312-105.86,157.5-57.534,162.1-168,2.3-48.326,0-80.542,48.323-98.955,20.813-7.284,45.858-9.862,71.312-9.862,30.833,0,62.266,3.783,87.477,7.566,80.361,12.78,136.065,53.1,208.556,53.1a206.5,206.5,0,0,0,60.692-9.376c34.477-18.1,76.6-30.73,112.27-30.73,21,0,39.776,4.385,53.421,14.617,23.015,16.113,32.216,55.231,50.629,78.243,16.11,23.015,34.516,34.522,59.834,46.027,71.338,32.22,132.276,52.935,139.178,142.676,4.6,80.549-51.73,135.777-54.033,209.418-2.3,66.735,75.937,161.092-20.712,191-11.624,4.108-23.86,5.163-36.284,5.163-6.578,0-13.211-.3-19.834-.592s-13.23-.593-19.77-.593c-16.116,0-31.792,1.8-46.078,9.84-29.914,18.409-41.424,43.724-80.542,52.921-14.95,3.987-30.335,4.952-45.962,4.952-7.332,0-14.72-.21-22.144-.424s-14.879-.425-22.351-.425c-5.895,0-11.8.133-17.7.5-48.326,4.6-96.649,23.012-144.982,41.421-34.947,12.706-67.691,23.222-102.79,23.222" transform="translate(5877.507 3578.725)" fill="#f0f0ee"/>
      <path id="path18" d="M492.92-339.918c-11.488,0-11.488-17.813,0-17.813s11.488,17.813,0,17.813" transform="translate(6405.553 3644.948)" fill="#f0f0ee"/>
      <path id="path20" d="M567.744-183.919a16.556,16.556,0,0,1-12.012-5.4c-12.334-12.644-.114-30.27,13.49-30.27a16.566,16.566,0,0,1,12.013,5.4c12.333,12.638.11,30.267-13.49,30.267" transform="translate(6500.341 3842.374)" fill="#f0f0ee"/>
      <path id="path22" d="M140.16-141.718c-22.975,0-22.975-35.627,0-35.627s22.973,35.627,0,35.627" transform="translate(5889.108 3902.739)" fill="#f0f0ee"/>
      <path id="path24" d="M522.738-333.1c-22.976,0-22.976-35.627,0-35.627s22.976,35.627,0,35.627" transform="translate(6435.852 3629.228)" fill="#f0f0ee"/>
      <path id="path26" d="M128.535-158.714c-29.868,0-29.868-46.315,0-46.315s29.867,46.315,0,46.315" transform="translate(5865.107 3863.176)" fill="#f0f0ee"/>
      <path id="path28" d="M572.2-142.339c-5.315,0-10.795-2.073-15.614-7.012-16.035-16.44-.143-39.358,17.538-39.358,5.318,0,10.795,2.073,15.617,7.015,16.035,16.44.143,39.358-17.541,39.355" transform="translate(6499.381 3886.499)" fill="#f0f0ee"/>
      <path id="path30" d="M173.537-314.35c-29.862,0-29.862-46.315,0-46.315s29.871,46.315,0,46.315" transform="translate(5929.427 3640.756)" fill="#f0f0ee"/>
      <path id="path32" d="M506.724-334.542c-34.464,0-34.464-53.44,0-53.44s34.461,53.44,0,53.44" transform="translate(6400.654 3601.717)" fill="#f0f0ee"/>
      <path id="path34" d="M115.074-153.01c-17.231,0-17.231-26.72,0-26.72s17.231,26.72,0,26.72" transform="translate(5859.415 3899.33)" fill="#f0f0ee"/>
      <path id="path36" d="M587.661-174.644a12.436,12.436,0,0,1-9.01-4.048c-9.253-9.483-.088-22.7,10.115-22.7a12.43,12.43,0,0,1,9.01,4.048c9.25,9.483.084,22.7-10.115,22.7" transform="translate(6534.914 3868.366)" fill="#f0f0ee"/>
      <path id="path38" d="M145.048-315.248c-17.231,0-17.231-26.717,0-26.717s17.23,26.717,0,26.717" transform="translate(5902.251 3667.48)" fill="#f0f0ee"/>
      <path id="path40" d="M144.347-340.651c-11.488,0-11.488-17.813,0-17.813s11.488,17.813,0,17.813" transform="translate(5907.405 3643.9)" fill="#f0f0ee"/>
      <path id="path42" d="M370.836-368.855c-22.973,0-22.973-35.627,0-35.627s22.976,35.627,0,35.627" transform="translate(6218.771 3578.137)" fill="#f0f0ee"/>
      <path id="path44" d="M238.884-35.093c-22.976,0-22.976-35.627,0-35.627s22.973,35.627,0,35.627" transform="translate(6030.195 4055.118)" fill="#f0f0ee"/>
      <path id="path46" d="M503.816-62.458c-22.976,0-22.976-35.623,0-35.623s22.976,35.623,0,35.623" transform="translate(6408.81 4016.016)" fill="#f0f0ee"/>
      <path id="path48" d="M343.768-390.335c-11.488,0-11.488-17.813,0-17.813s11.488,17.813,0,17.813" transform="translate(6192.399 3572.897)" fill="#f0f0ee"/>
      <path id="path50" d="M212.21-58.351c-11.485,0-11.485-17.813,0-17.813s11.488,17.813,0,17.813" transform="translate(6004.391 4047.336)" fill="#f0f0ee"/>
      <path id="path52" d="M476.747-63.765c-11.488,0-11.488-17.817,0-17.817s11.488,17.817,0,17.817" transform="translate(6382.438 4039.594)" fill="#f0f0ee"/>
      <path id="path76" d="M956.967-222.183c0,13.9-10.824,25.175-24.178,25.175H195.531c-13.354,0-24.174-11.271-24.174-25.175v-21.156c0-13.9,10.821-25.182,24.174-25.182H932.789c13.354,0,24.178,11.281,24.178,25.182v21.156" transform="translate(5958.318 3772.439)" fill="#f14196"/>
      <g id="g78" transform="translate(6319.635 3508.481)">
        <text id="text82" transform="translate(0 42)" fill="#fff" font-size="39" font-family="SegoeUI-Semibold, Segoe UI" font-weight="600"><tspan x="0" y="0">Sorry, Page Not Found</tspan></text>
      </g>
      <path id="path84" d="M824.348-114.353a30.219,30.219,0,0,1-30.224,30.225H236.289a30.218,30.218,0,0,1-30.221-30.225V-130.78A30.222,30.222,0,0,1,236.289-161H794.124a30.223,30.223,0,0,1,30.224,30.218v16.427" transform="translate(6007.923 3926.1)" fill="#fff"/>
      <path id="path86" d="M325.683-84.128H236.289a30.218,30.218,0,0,1-30.221-30.225V-130.78A30.222,30.222,0,0,1,236.289-161h89.394" transform="translate(6007.923 3926.1)" fill="#babcba"/>
      <path id="path88" d="M238.729-153.076a14.835,14.835,0,0,0-9.5,3.462,14.832,14.832,0,0,0-1.836,20.868,14.778,14.778,0,0,0,11.384,5.3,14.832,14.832,0,0,0,9.49-3.459,14.726,14.726,0,0,0,5.24-10.06,14.7,14.7,0,0,0-3.4-10.811A14.781,14.781,0,0,0,238.729-153.076Zm.052,33.787a18.9,18.9,0,0,1-14.568-6.782,19,19,0,0,1,2.351-26.733,19.035,19.035,0,0,1,12.162-4.434A18.941,18.941,0,0,1,253.3-150.45a18.884,18.884,0,0,1,4.356,13.852,18.8,18.8,0,0,1-6.708,12.868,19,19,0,0,1-12.165,4.44" transform="translate(6027.529 3931.473)" fill="#fff"/>
      <path id="path90" d="M255.69-123.05a3.107,3.107,0,0,1-.389,4.385l-1.8,1.509a3.11,3.11,0,0,1-4.392-.4l-16.981-21.059c-1.1-1.321-1.331-2.954-.013-4.061l1.8-1.5c1.315-1.108,2.886-.6,3.993.725l17.781,20.4" transform="translate(6043.86 3949.272)" fill="#fff"/>
      <g id="g92" transform="translate(6323.954 3622.13)">
        <text id="text96" transform="translate(0 39)" fill="#a8c0bc" font-size="36" font-family="SegoeUI-Bold, Segoe UI" font-weight="700"><tspan x="0" y="0">BACK TO HOMEPAGE</tspan></text>
      </g>
      <path id="path98" d="M601.014-481.083A29.388,29.388,0,0,1,627.9-449.394l-1.15,14.037a29.373,29.373,0,0,1-31.679,26.876l-50.645-4.142a29.389,29.389,0,0,1-26.889-31.682l1.153-14.034a29.389,29.389,0,0,1,31.685-26.888l50.635,4.146" transform="translate(6452.911 3462.599)" fill="#f14196"/>
      <path id="path100" d="M556.116-418.839s-.253-.962-.7-2.643a67.786,67.786,0,0,1-1.454-7.038c-.217-1.477-.453-3.083-.648-4.793-.246-1.71-.288-3.508-.382-5.376a57.452,57.452,0,0,1-.113-5.768c.068-1.963.142-3.961.21-5.956.233-1.985.47-3.968.7-5.924a53.2,53.2,0,0,1,1.007-5.684,53.212,53.212,0,0,1,1.231-5.25c.473-1.648.965-3.194,1.428-4.615a60.275,60.275,0,0,1,2.666-6.708l1.156-2.474s-.146.985-.4,2.711c-.23,1.723-.819,4.107-1.211,7.025-.207,1.454-.437,3.025-.735,4.674-.33,1.639-.4,3.42-.687,5.214-.541,3.6-.8,7.478-1.195,11.333-.2,3.877-.531,7.744-.57,11.394,0,1.82-.2,3.6-.152,5.26.023,1.671-.013,3.255-.042,4.722-.09,2.938.046,5.431-.019,7.164s-.084,2.734-.084,2.734" transform="translate(6503.401 3468.685)" fill="#d1146c"/>
      <path id="path102" d="M370.654-493.207c-3.171,2.782-3.171,2.782-.188,7.206,1.668,2.481,6.811,9.962,6.811,9.962a1.821,1.821,0,0,1-.858,2.449l-22.931,10.082L375.9-452.246a1.848,1.848,0,0,1-.259,3.164L343.328-436.8l15.932,16.524,466.685,38.221,6.747-82.363-451.741-37c-3.43,2.727-6.989,5.3-10.3,8.2" transform="translate(6204.083 3439.615)" fill="#f8a227"/>
      <path id="path104" d="M357.176-478.411s7.064.321,19.43.878c12.353.7,30.017,1.48,51.189,2.8,21.172,1.257,45.858,2.886,72.3,4.79,13.218.978,26.876,1.992,40.754,3.019l42.056,3.317,42.036,3.566c13.862,1.244,27.5,2.465,40.7,3.647,26.393,2.419,51.018,4.832,72.115,7.038,21.1,2.138,38.655,4.246,50.959,5.571,12.288,1.461,19.313,2.3,19.313,2.3l-19.43-.875c-12.356-.7-30.024-1.47-51.189-2.795-21.172-1.257-45.858-2.883-72.3-4.79l-40.754-3.025c-13.872-1.095-27.964-2.206-42.056-3.32-14.086-1.2-28.174-2.393-42.036-3.572-13.859-1.24-27.5-2.465-40.7-3.65-26.4-2.423-51.021-4.832-72.118-7.035-21.1-2.144-38.655-4.243-50.956-5.567l-19.316-2.3" transform="translate(6223.874 3472.484)" fill="#f47618"/>
      <path id="path106" d="M358.691-490.421l19.374.871c12.32.7,29.933,1.474,51.04,2.789,21.111,1.253,45.732,2.876,72.1,4.774,13.179.975,26.795,1.982,40.634,3.009l41.939,3.307c14.047,1.189,28.09,2.384,41.917,3.556,13.823,1.237,27.423,2.458,40.585,3.637,26.322,2.413,50.875,4.819,71.908,7.018,21.042,2.134,38.548,4.24,50.817,5.558l19.258,2.3-19.375-.871c-12.32-.693-29.933-1.464-51.044-2.779-21.114-1.253-45.729-2.873-72.092-4.777-13.179-.978-26.8-1.989-40.637-3.012-13.83-1.091-27.883-2.2-41.936-3.31-14.047-1.2-28.093-2.387-41.917-3.563-13.823-1.237-27.423-2.458-40.585-3.64-26.322-2.419-50.875-4.823-71.911-7.018-21.039-2.138-38.545-4.236-50.813-5.555l-19.258-2.29" transform="translate(6226.038 3455.319)" fill="#f47618"/>
      <path id="path108" d="M583.594-486.03l-7.8,95.172L518-395.593l7.8-95.172,57.8,4.735" transform="translate(6453.706 3454.828)" fill="#c3c5c2"/>
      <path id="path110" d="M537.529-489.806l-7.8,95.175-5.487-.45,7.793-95.172,5.49.447" transform="translate(6462.635 3455.56)" fill="#8c8f8f"/>
      <path id="path112" d="M546.57-489.061l-7.793,95.175-5.49-.453,7.8-95.175,5.487.453" transform="translate(6475.556 3456.615)" fill="#8c8f8f"/>
      <path id="path114" d="M534.253-462.607c6.164,0,6.164-9.558,0-9.558s-6.16,9.558,0,9.558" transform="translate(6470.333 3481.411)" fill="#8c8f8f"/>
      <path id="path116" d="M535.324-475.668c6.164,0,6.164-9.558,0-9.558s-6.163,9.558,0,9.558" transform="translate(6471.859 3462.745)" fill="#8c8f8f"/>
      <path id="path118" d="M533.188-449.549c6.163,0,6.163-9.558,0-9.558s-6.167,9.558,0,9.558" transform="translate(6468.803 3500.071)" fill="#8c8f8f"/>
      <path id="path120" d="M236.513-443.176q1.788,18.262,3.566,36.514c.4,4.094-1.156,5.5-5.2,4.709Q171.051-414.473,107.228-427c-1.8-.35-3.247-1.027-3.486-3.061-.257-2.128.983-3.129,2.8-3.874q60.376-24.723,120.738-49.5c3.346-1.367,5.273-.152,5.632,3.54q1.812,18.359,3.6,36.709" transform="translate(5861.641 3464.54)" fill="#f9d0b0" fill-rule="evenodd"/>
      <path id="path122" d="M150.366-470.766q-21.913,8.983-43.825,17.966c-1.816.745-3.055,1.746-2.8,3.874.239,2.034,1.685,2.711,3.486,3.061q23.014,4.513,46.016,9.03c5.533-9.324,2.975-24.686-2.878-33.93" transform="translate(5861.641 3483.41)" fill="#1f2b54" fill-rule="evenodd"/>
      <path id="path124" d="M582.865-431.691a1.845,1.845,0,0,1,.415-2.565l27.779-17.068-22.785-7.294a1.871,1.871,0,0,1-.311-3.158l21.237-14.7-11.88-11.611a1.845,1.845,0,0,1-.256-2.581c3.491-3.789,6.834-7.7,10.212-11.572l-450.8,44.112,8.052,82.246,435.923-42.658-17.587-13.15" transform="translate(5937.053 3438.427)" fill="#f8a227"/>
      <path id="path126" d="M181.322-462a13.5,13.5,0,0,1,14.584,12.33,13.514,13.514,0,0,1-11.916,14.931l-16.142,1.574a13.5,13.5,0,0,1-14.584-12.33,13.5,13.5,0,0,1,11.919-14.924L181.322-462" transform="translate(5932.363 3495.844)" fill="#f8a227"/>
      <path id="path128" d="M180.12-473.732c7.323-.719,13.9,5.25,14.685,13.328s-4.505,15.2-11.822,15.919l-16.142,1.574c-7.316.719-13.891-5.244-14.681-13.318s4.505-15.2,11.818-15.919l16.142-1.584" transform="translate(5930.772 3479.086)" fill="#f8a227"/>
      <path id="path130" d="M179.109-484.641A13.521,13.521,0,0,1,193.693-472.3a13.51,13.51,0,0,1-11.919,14.924l-16.139,1.58a13.508,13.508,0,0,1-14.588-12.33,13.509,13.509,0,0,1,11.919-14.928l16.142-1.584" transform="translate(5929.196 3463.492)" fill="#f8a227"/>
      <path id="path132" d="M157.218-436.017s6.743-.985,18.562-2.533c11.825-1.474,28.7-3.786,48.984-6.189,20.278-2.458,43.951-5.169,69.33-7.916,12.693-1.347,25.81-2.737,39.138-4.149,13.334-1.347,26.879-2.717,40.423-4.084,13.554-1.286,27.109-2.572,40.449-3.835,13.35-1.2,26.484-2.381,39.2-3.524,25.431-2.231,49.181-4.159,69.55-5.674,20.366-1.584,37.366-2.575,49.252-3.423,11.9-.771,18.7-1.111,18.7-1.111s-6.743.988-18.562,2.536c-11.825,1.474-28.7,3.8-48.98,6.2-20.278,2.461-43.954,5.172-69.333,7.916-12.693,1.344-25.807,2.734-39.138,4.142-13.331,1.347-26.879,2.714-40.424,4.081-13.554,1.286-27.109,2.568-40.449,3.832l-39.2,3.517c-25.428,2.225-49.178,4.159-69.55,5.674-20.366,1.58-37.366,2.581-49.252,3.43-11.893.771-18.7,1.114-18.7,1.114" transform="translate(5938.112 3472.421)" fill="#f47618"/>
      <path id="path134" d="M156.04-447.4s6.931-.936,19.057-2.578c12.139-1.5,29.463-3.861,50.286-6.316,20.819-2.513,45.12-5.283,71.176-8.1,13.03-1.376,26.493-2.8,40.174-4.249,13.687-1.383,27.591-2.785,41.5-4.191,13.914-1.318,27.828-2.64,41.521-3.935,13.7-1.237,27.186-2.452,40.236-3.627,26.108-2.3,50.486-4.285,71.4-5.856,20.9-1.632,38.354-2.669,50.558-3.543,12.214-.738,19.193-1.163,19.193-1.163l-19.057,2.585c-12.139,1.5-29.46,3.87-50.282,6.322-20.819,2.513-45.123,5.289-71.176,8.094-13.03,1.376-26.493,2.8-40.174,4.246l-41.5,4.185-41.525,3.935c-13.7,1.231-27.187,2.445-40.239,3.621-26.1,2.29-50.483,4.282-71.393,5.852-20.9,1.629-38.354,2.675-50.554,3.553-12.213.742-19.2,1.163-19.2,1.163" transform="translate(5936.428 3454.557)" fill="#f47618"/>
      <path id="path136" d="M157.54-431.442c-11.65-11.339-14.633-27.569-4.288-40.9,1.636-2.108-1.308-5.1-2.967-2.967-11.718,15.1-9.172,33.735,4.288,46.833,1.94,1.888,4.907-1.075,2.967-2.967" transform="translate(5917.528 3475.869)" fill="#533f37"/>
      <path id="path138" d="M140.137-453.306c5.862,0,5.862-9.091,0-9.091s-5.862,9.091,0,9.091" transform="translate(5907.418 3495.369)" fill="#533f37"/>
      <path id="path140" d="M139.241-462.445c5.862,0,5.862-9.088,0-9.088s-5.862,9.088,0,9.088" transform="translate(5906.138 3482.313)" fill="#533f37"/>
      <path id="path142" d="M318.6-541.02s.774.926,1.989,2.607,2.905,4.1,4.748,7.093c1.885,2.97,3.9,6.52,5.992,10.358,2.057,3.851,4.113,8.023,6.057,12.246,1.921,4.233,3.728,8.515,5.292,12.592,1.535,4.091,2.9,7.938,3.9,11.313,1.056,3.349,1.775,6.215,2.244,8.236s.661,3.209.661,3.209-.774-.923-1.992-2.6-2.912-4.1-4.751-7.093c-1.888-2.967-3.906-6.517-5.992-10.354-2.057-3.854-4.107-8.026-6.047-12.252-1.921-4.23-3.721-8.518-5.286-12.6-1.532-4.091-2.892-7.938-3.9-11.31-1.056-3.352-1.778-6.218-2.251-8.236s-.667-3.21-.667-3.21" transform="translate(6168.741 3383.009)" fill="#f8a227"/>
      <path id="path144" d="M351.493-536.045s.321,1.02.729,2.8.939,4.334,1.37,7.391c.483,3.057.842,6.627,1.15,10.448.269,3.825.414,7.9.424,11.977-.01,4.078-.146,8.155-.415,11.977-.3,3.825-.664,7.391-1.15,10.448-.431,3.057-.965,5.606-1.376,7.391s-.732,2.8-.732,2.8-.321-1.02-.732-2.8-.946-4.334-1.376-7.391c-.486-3.057-.845-6.623-1.15-10.448-.269-3.822-.4-7.9-.415-11.977.01-4.078.155-8.152.424-11.977.308-3.822.667-7.391,1.15-10.448.431-3.057.962-5.606,1.37-7.391s.729-2.8.729-2.8" transform="translate(6210.503 3390.118)" fill="#f8a227"/>
      <path id="path146" d="M394.42-541.459s-.13,1.244-.5,3.368-.939,5.14-1.817,8.686c-.832,3.563-2,7.653-3.317,12-1.351,4.337-2.928,8.91-4.628,13.441-1.723,4.521-3.559,9-5.418,13.143-1.888,4.136-3.725,7.968-5.461,11.19-1.687,3.239-3.258,5.878-4.392,7.711s-1.862,2.854-1.862,2.854.13-1.244.5-3.368.933-5.143,1.814-8.69c.829-3.566,1.992-7.653,3.313-12,1.351-4.34,2.938-8.913,4.638-13.441,1.726-4.518,3.569-8.994,5.428-13.14,1.888-4.133,3.725-7.964,5.461-11.19,1.687-3.239,3.255-5.878,4.385-7.715s1.856-2.853,1.856-2.853" transform="translate(6237.955 3382.382)" fill="#f8a227"/>
      <path id="path148" d="M314.063-389.688s.191-1.189.664-3.21,1.2-4.884,2.251-8.233c1.007-3.371,2.371-7.223,3.9-11.313,1.561-4.074,3.362-8.366,5.283-12.6,1.937-4.227,3.993-8.4,6.047-12.249,2.086-3.838,4.1-7.388,5.992-10.358,1.84-2.993,3.534-5.415,4.751-7.093s1.992-2.6,1.992-2.6-.191,1.192-.664,3.21-1.189,4.887-2.241,8.236c-1.007,3.375-2.368,7.222-3.9,11.313-1.564,4.078-3.372,8.363-5.292,12.592-1.94,4.223-4,8.395-6.057,12.246-2.086,3.838-4.1,7.388-5.992,10.358-1.84,2.993-3.527,5.415-4.745,7.1s-1.989,2.6-1.989,2.6" transform="translate(6162.26 3502.592)" fill="#f8a227"/>
      <path id="path150" d="M346.957-396.082s-.321-1.02-.729-2.8-.939-4.333-1.373-7.391c-.479-3.057-.842-6.627-1.146-10.448-.269-3.822-.415-7.9-.424-11.977.01-4.078.146-8.155.415-11.98.3-3.822.664-7.388,1.146-10.448.434-3.057.968-5.606,1.38-7.388s.732-2.8.732-2.8.317,1.02.729,2.8.946,4.33,1.38,7.388c.483,3.061.845,6.627,1.15,10.448.269,3.825.4,7.9.411,11.98s-.152,8.155-.421,11.977c-.308,3.822-.667,7.391-1.15,10.448-.434,3.057-.965,5.606-1.373,7.391s-.725,2.8-.725,2.8" transform="translate(6204.021 3496.906)" fill="#f8a227"/>
      <path id="path152" d="M389.884-386.458s-.726-1.02-1.856-2.853-2.7-4.476-4.389-7.715c-1.736-3.223-3.569-7.054-5.457-11.19-1.859-4.146-3.705-8.618-5.428-13.14-1.7-4.528-3.291-9.1-4.641-13.438-1.321-4.35-2.481-8.437-3.31-12-.881-3.55-1.451-6.565-1.817-8.693s-.492-3.368-.492-3.368.729,1.02,1.859,2.853,2.7,4.473,4.4,7.715c1.736,3.219,3.569,7.051,5.457,11.187,1.862,4.146,3.7,8.622,5.419,13.143,1.7,4.531,3.281,9.1,4.631,13.444,1.321,4.346,2.481,8.437,3.313,12,.881,3.546,1.454,6.562,1.82,8.687s.5,3.368.5,3.368" transform="translate(6231.473 3500.432)" fill="#f8a227"/>
      <path id="path154" d="M196.491-327.943c.35-13.334,5.681-36.709,11.4-45.194,75.516,19.384,137.847,14.173,178.076-46.888,35.037-53.178,21.017-117.944-31.037-160.619-70.907-58.133-206.794-29.2-226.947,65.239-11.3,53,10.722,108.584,47.358,130.346,6.8,4.036-4.4,26.1,21.149,57.116" transform="translate(5892.083 3283.555)" fill="#fff"/>
      <path id="path156" d="M199.4-326.867a140.64,140.64,0,0,1,4.712-28.113,79.035,79.035,0,0,1,5-13.671c1-2.131,12.644,1.7,14.121,2.028a263.823,263.823,0,0,0,56.391,6.558c31.394.136,61.207-9.645,85.174-30.046,57.116-48.618,54.007-129.05,3.8-180.625-41.424-42.548-107.221-49.835-161.36-30.419-59.448,21.321-90.288,76.287-81.372,138.225,4.189,29.1,18.956,57.414,42.124,75.713,10.3,8.136,8.142,12.061,10.157,23.786,2.491,14.484,8.949,26.409,17.894,37.955,1.555,2,4.317-.8,2.785-2.782-11.809-15.242-16.6-30.095-17.949-48.961-.7-9.846-9.652-12.107-16.615-18.192-33.228-29.045-42.124-80.844-32.6-122.041,14.692-63.51,84.922-92.9,144.438-89.786,74.878,3.916,141.484,72.309,125.465,149.51-8.191,39.462-39.886,73.281-77.287,86.709-36.683,13.166-78.246,6.241-114.926-2.941a2,2,0,0,0-2.222.907c-7.955,13.548-10.84,30.678-11.666,46.185-.136,2.539,3.8,2.526,3.935,0" transform="translate(5891.141 3282.479)" fill="#babcba"/>
      <g id="g158" transform="translate(6287.007 3226.798)">
        <text id="text162" transform="translate(0 181)" fill="#babcba" font-size="168" font-family="SegoeUI-Semibold, Segoe UI" font-weight="600"><tspan x="0" y="0">Oops!</tspan></text>
      </g>
      <g id="Group_2" data-name="Group 2" transform="translate(6027.375 2693.423)">
        <g id="g64" transform="translate(9.739)">
          <text id="text68" transform="translate(0 156)" fill="#66ccd1" font-size="145" font-family="SegoeUI-Bold, Segoe UI" font-weight="700"><tspan x="0" y="0">404</tspan></text>
        </g>
        <g id="g70">
          <text id="text74" transform="translate(0 156)" fill="#354faa" font-size="145" font-family="SegoeUI-Bold, Segoe UI" font-weight="700"><tspan x="0" y="0">404</tspan></text>
        </g>
      </g>
    </g>
  </g>
</svg>
