<svg xmlns="http://www.w3.org/2000/svg" xmlns:xlink="http://www.w3.org/1999/xlink" width="60" height="60" viewBox="0 0 60 60"><defs><style>
      .cls-1 {
        fill: #fff;
        stroke: #707070;
      }

      .cls-2 {
        clip-path: url(#clip-path);
      }

      .cls-3 {
        fill: #062e38;
      }
    </style><clipPath id="clip-path"><rect id="Rectangle_56" data-name="Rectangle 56" class="cls-1" width="60" height="60" transform="translate(365 323)"></rect></clipPath></defs><g id="point2" class="cls-2" transform="translate(-365 -323)"><g id="learn" transform="translate(365 324)"><path id="Path_56" data-name="Path 56" class="cls-3" d="M53.387,24.484V22.677H51.581v-6.8a8.129,8.129,0,1,0-9.032,0v6.8H33.516V15.083A7.4,7.4,0,0,0,37.129,8.7V3.336L34.793,1H29.9V7.323a.9.9,0,1,1-1.806,0V1h-4.89L20.871,3.336V8.7a7.4,7.4,0,0,0,3.613,6.38v9.4H22.677V22.677a10.846,10.846,0,0,0-7.2-10.2,6.323,6.323,0,1,0-7.284,0A10.846,10.846,0,0,0,1,22.677v8.129a4.521,4.521,0,0,0,4.516,4.516V53.387a3.6,3.6,0,0,0,6.323,2.365,3.6,3.6,0,0,0,6.323-2.365V35.323a4.469,4.469,0,0,0,2.71-.927v20.8H34.917a5.373,5.373,0,0,0,8.037,0H57V24.484Zm-27.1,25.29V24.484H38.032v25.29Zm13.548-25.29H51.581v25.29H39.839ZM43.9,14.6a6.323,6.323,0,1,1,6.321,0l-.451.261v7.817H44.355V14.86ZM25.791,13.74A5.6,5.6,0,0,1,22.677,8.7V4.084l1.277-1.277H26.29V7.323a2.71,2.71,0,0,0,5.419,0V2.806h2.336l1.277,1.277V8.7a5.6,5.6,0,0,1-3.113,5.038l-.5.249v8.687H26.29V13.99ZM12.719,20.632l-.881,1.321-.881-1.321.581-6.972c.1,0,.2-.014.3-.014s.2.012.3.015ZM7.323,7.323a4.516,4.516,0,1,1,4.516,4.516A4.521,4.521,0,0,1,7.323,7.323ZM18.161,33.516V19.065H16.355V53.387a1.806,1.806,0,0,1-3.613,0V29.9H10.935V53.387a1.806,1.806,0,0,1-3.613,0V19.065H5.516V33.516a2.713,2.713,0,0,1-2.71-2.71V22.677a9.042,9.042,0,0,1,6.9-8.768l-.6,7.2,2.732,4.1,2.732-4.1-.6-7.2a9.04,9.04,0,0,1,6.9,8.767v8.129A2.713,2.713,0,0,1,18.161,33.516ZM55.194,53.387H42.078l-.271.359a3.572,3.572,0,0,1-5.744,0l-.27-.359H22.677V26.29h1.806v25.29h28.9V26.29h1.806Z" transform="translate(0 0)"></path><path id="Path_57" data-name="Path 57" class="cls-3" d="M31,29v7.226h8.129V29Zm6.323,5.419H32.806V30.806h4.516Z" transform="translate(-2.903 -2.71)"></path><path id="Path_58" data-name="Path 58" class="cls-3" d="M50.065,44a4.065,4.065,0,1,0,4.065,4.065A4.069,4.069,0,0,0,50.065,44Zm0,6.323a2.258,2.258,0,1,1,2.258-2.258A2.261,2.261,0,0,1,50.065,50.323Z" transform="translate(-4.355 -4.161)"></path><path id="Path_59" data-name="Path 59" class="cls-3" d="M31,39h8.129v1.806H31Z" transform="translate(-2.903 -3.677)"></path><path id="Path_60" data-name="Path 60" class="cls-3" d="M31,43h8.129v1.806H31Z" transform="translate(-2.903 -4.065)"></path><path id="Path_61" data-name="Path 61" class="cls-3" d="M38,47h1.806v1.806H38Z" transform="translate(-3.581 -4.452)"></path><path id="Path_62" data-name="Path 62" class="cls-3" d="M31,47h4.516v1.806H31Z" transform="translate(-2.903 -4.452)"></path><path id="Path_63" data-name="Path 63" class="cls-3" d="M31,51h8.129v1.806H31Z" transform="translate(-2.903 -4.839)"></path><path id="Path_64" data-name="Path 64" class="cls-3" d="M46,29h8.129v1.806H46Z" transform="translate(-4.355 -2.71)"></path><path id="Path_65" data-name="Path 65" class="cls-3" d="M46,33h8.129v1.806H46Z" transform="translate(-4.355 -3.097)"></path><path id="Path_66" data-name="Path 66" class="cls-3" d="M46,37h8.129v1.806H46Z" transform="translate(-4.355 -3.484)"></path><path id="Path_67" data-name="Path 67" class="cls-3" d="M31,21h1.806v1.806H31Z" transform="translate(-2.903 -1.935)"></path><path id="Path_68" data-name="Path 68" class="cls-3" d="M31,17h1.806v1.806H31Z" transform="translate(-2.903 -1.548)"></path><path id="Path_69" data-name="Path 69" class="cls-3" d="M56.032,9.516a4.516,4.516,0,1,0-4.516,4.516A4.521,4.521,0,0,0,56.032,9.516Zm-7.226,0a2.71,2.71,0,1,1,2.71,2.71A2.713,2.713,0,0,1,48.806,9.516Z" transform="translate(-4.452 -0.387)"></path><path id="Path_70" data-name="Path 70" class="cls-3" d="M51,21h1.806v1.806H51Z" transform="translate(-4.839 -1.935)"></path><path id="Path_71" data-name="Path 71" class="cls-3" d="M51,17h1.806v1.806H51Z" transform="translate(-4.839 -1.548)"></path></g></g></svg>