<svg xmlns="http://www.w3.org/2000/svg" width="60" height="60" viewBox="0 0 60 60"><defs><style>
      .cls-1 {
        fill: #062e38;
      }
    </style></defs><g id="point1" transform="translate(-2 -2)"><path id="Path_46" data-name="Path 46" class="cls-1" d="M61,2H31a1,1,0,0,0-1,1V19.3l-3.043-3.551A5,5,0,0,0,23.16,14H19.445a6.007,6.007,0,0,0,1.471-3H22a1,1,0,0,0,.9-1.448L21,5.764V5a3,3,0,0,0-3-3H12A3,3,0,0,0,9,5V9.785A6.348,6.348,0,0,0,10.6,14H9a5.006,5.006,0,0,0-5,5v9a4.948,4.948,0,0,0,1.026,3H3a1,1,0,0,0-1,1v4a1,1,0,0,0,1,1H4v4H6V37H36v2h2V37H61a1,1,0,0,0,1-1V3A1,1,0,0,0,61,2ZM11,5a1,1,0,0,1,1-1h6a1,1,0,0,1,1,1V6a1,1,0,0,0,.1.447L20.382,9H20a1,1,0,0,0-1,1,4,4,0,0,1-4.4,3.982,4.151,4.151,0,0,1-3.6-4.2Zm5.382,11L15,18.764,13.618,16ZM6,28V19a3,3,0,0,1,3-3h2.382l2.724,5.447a1,1,0,0,0,1.789,0L18.618,16H23.16a3,3,0,0,1,2.278,1.047l4.8,5.6a1,1,0,0,0,.721.349.973.973,0,0,0,.746-.292L37,17.414,39.586,20l-6.464,6.465a3.007,3.007,0,0,1-4.243,0l-3.171-3.172A1,1,0,0,0,24,24v7H19V28a3,3,0,0,0-3-3H12V23H10v3a1,1,0,0,0,1,1h5a1,1,0,0,1,1,1v3H9a3,3,0,0,1-3-3Zm20,3V26.414l1.464,1.465A4.966,4.966,0,0,0,30,29.236V31Zm12,4H4V33H38Zm22,0H40V32a1,1,0,0,0-1-1H32V29.236a4.966,4.966,0,0,0,2.536-1.357l7.171-7.172a1,1,0,0,0,0-1.414L39.414,17l5.293-5.293-1.414-1.414L38,15.586l-.293-.293a1,1,0,0,0-1.414,0L32,19.586V4H60Z"></path><path id="Path_47" data-name="Path 47" class="cls-1" d="M44,8.118l5.553,2.776A.989.989,0,0,0,50,11a1,1,0,0,0,.447-.1l6-3-.9-1.789L50,8.882,44.447,6.106a1,1,0,0,0-.9,0l-6,3,.9,1.789Z"></path><path id="Path_48" data-name="Path 48" class="cls-1" d="M45,17H57v2H45Z"></path><path id="Path_49" data-name="Path 49" class="cls-1" d="M45,21H57v2H45Z"></path><path id="Path_50" data-name="Path 50" class="cls-1" d="M45,25H57v2H45Z"></path><path id="Path_51" data-name="Path 51" class="cls-1" d="M45,29H57v2H45Z"></path><path id="Path_52" data-name="Path 52" class="cls-1" d="M5,55v6a1,1,0,0,0,1,1H16a1,1,0,0,0,1-1V55a5.993,5.993,0,0,0-2.887-5.119,5,5,0,1,0-6.226,0A5.993,5.993,0,0,0,5,55Zm3-9a3,3,0,1,1,3,3A3,3,0,0,1,8,46ZM7,55a4,4,0,0,1,8,0v5H7Z"></path><path id="Path_53" data-name="Path 53" class="cls-1" d="M19,55v6a1,1,0,0,0,1,1H30a1,1,0,0,0,1-1V55a5.993,5.993,0,0,0-2.887-5.119,5,5,0,1,0-6.226,0A5.993,5.993,0,0,0,19,55Zm3-9a3,3,0,1,1,3,3A3,3,0,0,1,22,46Zm-1,9a4,4,0,0,1,8,0v5H21Z"></path><path id="Path_54" data-name="Path 54" class="cls-1" d="M33,55v6a1,1,0,0,0,1,1H44a1,1,0,0,0,1-1V55a5.993,5.993,0,0,0-2.887-5.119,5,5,0,1,0-6.226,0A5.993,5.993,0,0,0,33,55Zm3-9a3,3,0,1,1,3,3A3,3,0,0,1,36,46Zm-1,9a4,4,0,0,1,8,0v5H35Z"></path><path id="Path_55" data-name="Path 55" class="cls-1" d="M47,55v6a1,1,0,0,0,1,1H58a1,1,0,0,0,1-1V55a5.993,5.993,0,0,0-2.887-5.119,5,5,0,1,0-6.226,0A5.993,5.993,0,0,0,47,55Zm3-9a3,3,0,1,1,3,3A3,3,0,0,1,50,46Zm-1,9a4,4,0,0,1,8,0v5H49Z"></path></g></svg>